<?xml version="1.0" ?><svg data-name="Layer 1" id="Layer_1" viewBox="0 0 64 64" xmlns="http://www.w3.org/2000/svg"><title/><path d="M32,12A20.08,20.08,0,1,0,52.08,32,20.11,20.11,0,0,0,32,12Z"/><path d="M32,7.88a1,1,0,0,1-1-1V2a1,1,0,0,1,2,0V6.88A1,1,0,0,1,32,7.88Z"/><path d="M32,63a1,1,0,0,1-1-1V57.13a1,1,0,0,1,2,0V62A1,1,0,0,1,32,63Z"/><path d="M62,33H57.13a1,1,0,0,1,0-2H62a1,1,0,0,1,0,2Z"/><path d="M6.88,33H2a1,1,0,0,1,0-2H6.88a1,1,0,0,1,0,2Z"/><path d="M53.18,54.18a1,1,0,0,1-.71-.29l-3.42-3.42a1,1,0,0,1,1.41-1.41l3.42,3.42a1,1,0,0,1-.71,1.71Z"/><path d="M14.23,15.23a1,1,0,0,1-.71-.29l-3.42-3.42a1,1,0,0,1,1.41-1.41l3.42,3.42a1,1,0,0,1-.71,1.71Z"/><path d="M10.82,54.18a1,1,0,0,1-.71-1.71l3.42-3.42a1,1,0,0,1,1.41,1.41l-3.42,3.42A1,1,0,0,1,10.82,54.18Z"/><path d="M49.77,15.23a1,1,0,0,1-.71-1.71l3.42-3.42a1,1,0,0,1,1.41,1.41l-3.42,3.42A1,1,0,0,1,49.77,15.23Z"/></svg>